<svg width="16" height="16" viewBox="0 0 16 16" fill="none" xmlns="http://www.w3.org/2000/svg">
<g clip-path="url(#clip0)">
<rect x="2.5" y="3" width="11" height="9" fill="white"/>
<path d="M14.5454 15.6378H11.9546L12.1364 13.4559H10.8636L10.6818 15.6378H5.31819L5.13631 13.4559H3.86369L4.04556 15.6378H1.4545L0 6.18313L3.63637 0.365005H12.3636L16 6.18313L14.5454 15.6378ZM11.6364 3.27407H9.29869L9.45456 4.36501H6.54544L6.70131 3.27407H4.36363L2.90906 6.18319L3.63637 12.0013H12.3636L13.0909 6.18319L11.6364 3.27407V3.27407ZM10.3636 10.0704C10.1628 10.0704 10 9.46482 10 8.71776C10 7.97063 10.1628 7.36501 10.3636 7.36501C10.5644 7.36501 10.7273 7.97063 10.7273 8.71776C10.7273 9.46482 10.5644 10.0704 10.3636 10.0704ZM5.77275 10.1832C5.57194 10.1832 5.40906 9.57757 5.40906 8.83044C5.40906 8.08338 5.57194 7.47776 5.77275 7.47776C5.97356 7.47776 6.13637 8.08338 6.13637 8.83044C6.13637 9.57757 5.97356 10.1832 5.77275 10.1832Z" fill="#444444"/>
</g>
<defs>
<clipPath id="clip0">
<rect width="16" height="16" fill="white"/>
</clipPath>
</defs>
</svg>
