<svg width="360" height="56" viewBox="0 0 360 56" fill="none" xmlns="http://www.w3.org/2000/svg">
<g opacity="0.6">
<rect width="90" height="56" fill="white"/>
<path d="M33 16C33 11.5817 36.5817 8 41 8H49C53.4183 8 57 11.5817 57 16V24C57 28.4183 53.4183 32 49 32H41C36.5817 32 33 28.4183 33 24V16Z" fill="#E6E6E6"/>
<rect x="4.5" y="34" width="81" height="16" rx="8" fill="#E6E6E6"/>
<path d="M19.8848 46V38.1797H22.4414C23.29 38.1797 23.9274 38.3551 24.3535 38.7061C24.7832 39.057 24.998 39.5762 24.998 40.2637C24.998 40.6289 24.8942 40.953 24.6865 41.2358C24.4788 41.5151 24.196 41.7318 23.8379 41.8857C24.2604 42.0039 24.5934 42.2295 24.8369 42.5625C25.084 42.8919 25.2075 43.2858 25.2075 43.7441C25.2075 44.446 24.9801 44.9974 24.5254 45.3984C24.0706 45.7995 23.4279 46 22.5972 46H19.8848ZM20.916 42.3423V45.1567H22.6187C23.0985 45.1567 23.4762 45.0332 23.752 44.7861C24.0312 44.5355 24.1709 44.1917 24.1709 43.7549C24.1709 42.8132 23.6589 42.3423 22.6348 42.3423H20.916ZM20.916 41.5151H22.4736C22.9248 41.5151 23.2847 41.4023 23.5532 41.1768C23.8254 40.9512 23.9614 40.645 23.9614 40.2583C23.9614 39.8286 23.8361 39.5171 23.5854 39.3237C23.3348 39.1268 22.9535 39.0283 22.4414 39.0283H20.916V41.5151ZM28.5322 42.3101L29.8213 40.1885H30.9814L29.0801 43.062L31.0405 46H29.8911L28.5483 43.8247L27.2056 46H26.0508L28.0112 43.062L26.1099 40.1885H27.2593L28.5322 42.3101ZM31.6689 43.0405C31.6689 42.4712 31.7799 41.9591 32.002 41.5044C32.2275 41.0496 32.5391 40.6987 32.9365 40.4517C33.3376 40.2046 33.7941 40.0811 34.3062 40.0811C35.0975 40.0811 35.7367 40.355 36.2236 40.9028C36.7142 41.4507 36.9595 42.1794 36.9595 43.0889V43.1587C36.9595 43.7244 36.8503 44.2329 36.6318 44.6841C36.417 45.1317 36.1073 45.4808 35.7026 45.7314C35.3016 45.9821 34.8397 46.1074 34.3169 46.1074C33.5291 46.1074 32.89 45.8335 32.3994 45.2856C31.9124 44.7378 31.6689 44.0127 31.6689 43.1104V43.0405ZM32.668 43.1587C32.668 43.8032 32.8166 44.3206 33.1138 44.7109C33.4146 45.1012 33.8156 45.2964 34.3169 45.2964C34.8218 45.2964 35.2228 45.0994 35.52 44.7056C35.8172 44.3081 35.9658 43.7531 35.9658 43.0405C35.9658 42.4032 35.8136 41.8875 35.5093 41.4937C35.2085 41.0962 34.8075 40.8975 34.3062 40.8975C33.8156 40.8975 33.4199 41.0926 33.1191 41.4829C32.8184 41.8732 32.668 42.4318 32.668 43.1587ZM37.7705 45.189L38.1143 44.7646C38.501 44.2633 38.7212 43.5114 38.7749 42.5088L38.8662 40.1885H42.6099V45.189H43.3564V47.708H42.3628V46H38.3076V47.708H37.314L37.3193 45.189H37.7705ZM38.9468 45.189H41.6162V41.1069H39.8276L39.7686 42.4927C39.7077 43.6493 39.4338 44.548 38.9468 45.189ZM48.8994 40.1885V46H47.9004V43.7388H46.4019L45.0322 46H43.958L45.4189 43.5884C45.0465 43.4523 44.7601 43.2428 44.5596 42.96C44.3626 42.6735 44.2642 42.3405 44.2642 41.9609C44.2642 41.431 44.4629 41.0049 44.8604 40.6826C45.2578 40.3568 45.7896 40.1921 46.4556 40.1885H48.8994ZM45.2632 41.9717C45.2632 42.2546 45.3599 42.4837 45.5532 42.6592C45.7466 42.8311 46.0026 42.9188 46.3213 42.9224H47.9004V40.9941H46.4717C46.1029 40.9941 45.8092 41.0854 45.5908 41.2681C45.3724 41.4471 45.2632 41.6816 45.2632 41.9717ZM51.5205 40.1885V45.189H53.6475V40.1885H54.6411V45.189H56.7627V40.1885H57.7617V45.189H58.5781L58.4814 47.7241H57.5898V46H50.5215V40.1885H51.5205ZM63.353 40.1885H64.3467V46H63.353V41.7622L60.6729 46H59.6792V40.1885H60.6729V44.4316L63.353 40.1885ZM68.3535 46.1074C67.5658 46.1074 66.9248 45.8496 66.4307 45.334C65.9365 44.8148 65.6895 44.1219 65.6895 43.2554V43.0728C65.6895 42.4963 65.7987 41.9824 66.0171 41.5312C66.2391 41.0765 66.547 40.722 66.9409 40.4678C67.3384 40.21 67.7681 40.0811 68.23 40.0811C68.9855 40.0811 69.5728 40.3299 69.9917 40.8276C70.4106 41.3254 70.6201 42.0379 70.6201 42.9653V43.3789H66.6831C66.6974 43.9518 66.8639 44.4155 67.1826 44.77C67.5049 45.1209 67.9131 45.2964 68.4072 45.2964C68.7581 45.2964 69.0553 45.2248 69.2988 45.0815C69.5423 44.9383 69.7554 44.7485 69.938 44.5122L70.5449 44.9849C70.0579 45.7332 69.3275 46.1074 68.3535 46.1074ZM68.23 40.8975C67.8289 40.8975 67.4924 41.0443 67.2202 41.3379C66.9481 41.6279 66.7798 42.0361 66.7153 42.5625H69.6265V42.4873C69.5978 41.9824 69.4618 41.5921 69.2183 41.3164C68.9748 41.0371 68.6453 40.8975 68.23 40.8975Z" fill="#E6E6E6"/>
<rect width="90" height="56" transform="translate(270)" fill="white"/>
<path d="M303 16C303 11.5817 306.582 8 311 8H319C323.418 8 327 11.5817 327 16V24C327 28.4183 323.418 32 319 32H311C306.582 32 303 28.4183 303 24V16Z" fill="#E6E6E6"/>
<rect x="274.5" y="34" width="81" height="16" rx="8" fill="#E6E6E6"/>
<path d="M289.885 46V38.1797H292.441C293.29 38.1797 293.927 38.3551 294.354 38.7061C294.783 39.057 294.998 39.5762 294.998 40.2637C294.998 40.6289 294.894 40.953 294.687 41.2358C294.479 41.5151 294.196 41.7318 293.838 41.8857C294.26 42.0039 294.593 42.2295 294.837 42.5625C295.084 42.8919 295.208 43.2858 295.208 43.7441C295.208 44.446 294.98 44.9974 294.525 45.3984C294.071 45.7995 293.428 46 292.597 46H289.885ZM290.916 42.3423V45.1567H292.619C293.098 45.1567 293.476 45.0332 293.752 44.7861C294.031 44.5355 294.171 44.1917 294.171 43.7549C294.171 42.8132 293.659 42.3423 292.635 42.3423H290.916ZM290.916 41.5151H292.474C292.925 41.5151 293.285 41.4023 293.553 41.1768C293.825 40.9512 293.961 40.645 293.961 40.2583C293.961 39.8286 293.836 39.5171 293.585 39.3237C293.335 39.1268 292.953 39.0283 292.441 39.0283H290.916V41.5151ZM298.532 42.3101L299.821 40.1885H300.981L299.08 43.062L301.041 46H299.891L298.548 43.8247L297.206 46H296.051L298.011 43.062L296.11 40.1885H297.259L298.532 42.3101ZM301.669 43.0405C301.669 42.4712 301.78 41.9591 302.002 41.5044C302.228 41.0496 302.539 40.6987 302.937 40.4517C303.338 40.2046 303.794 40.0811 304.306 40.0811C305.097 40.0811 305.737 40.355 306.224 40.9028C306.714 41.4507 306.959 42.1794 306.959 43.0889V43.1587C306.959 43.7244 306.85 44.2329 306.632 44.6841C306.417 45.1317 306.107 45.4808 305.703 45.7314C305.302 45.9821 304.84 46.1074 304.317 46.1074C303.529 46.1074 302.89 45.8335 302.399 45.2856C301.912 44.7378 301.669 44.0127 301.669 43.1104V43.0405ZM302.668 43.1587C302.668 43.8032 302.817 44.3206 303.114 44.7109C303.415 45.1012 303.816 45.2964 304.317 45.2964C304.822 45.2964 305.223 45.0994 305.52 44.7056C305.817 44.3081 305.966 43.7531 305.966 43.0405C305.966 42.4032 305.814 41.8875 305.509 41.4937C305.208 41.0962 304.807 40.8975 304.306 40.8975C303.816 40.8975 303.42 41.0926 303.119 41.4829C302.818 41.8732 302.668 42.4318 302.668 43.1587ZM307.771 45.189L308.114 44.7646C308.501 44.2633 308.721 43.5114 308.775 42.5088L308.866 40.1885H312.61V45.189H313.356V47.708H312.363V46H308.308V47.708H307.314L307.319 45.189H307.771ZM308.947 45.189H311.616V41.1069H309.828L309.769 42.4927C309.708 43.6493 309.434 44.548 308.947 45.189ZM318.899 40.1885V46H317.9V43.7388H316.402L315.032 46H313.958L315.419 43.5884C315.047 43.4523 314.76 43.2428 314.56 42.96C314.363 42.6735 314.264 42.3405 314.264 41.9609C314.264 41.431 314.463 41.0049 314.86 40.6826C315.258 40.3568 315.79 40.1921 316.456 40.1885H318.899ZM315.263 41.9717C315.263 42.2546 315.36 42.4837 315.553 42.6592C315.747 42.8311 316.003 42.9188 316.321 42.9224H317.9V40.9941H316.472C316.103 40.9941 315.809 41.0854 315.591 41.2681C315.372 41.4471 315.263 41.6816 315.263 41.9717ZM321.521 40.1885V45.189H323.647V40.1885H324.641V45.189H326.763V40.1885H327.762V45.189H328.578L328.481 47.7241H327.59V46H320.521V40.1885H321.521ZM333.353 40.1885H334.347V46H333.353V41.7622L330.673 46H329.679V40.1885H330.673V44.4316L333.353 40.1885ZM338.354 46.1074C337.566 46.1074 336.925 45.8496 336.431 45.334C335.937 44.8148 335.689 44.1219 335.689 43.2554V43.0728C335.689 42.4963 335.799 41.9824 336.017 41.5312C336.239 41.0765 336.547 40.722 336.941 40.4678C337.338 40.21 337.768 40.0811 338.23 40.0811C338.986 40.0811 339.573 40.3299 339.992 40.8276C340.411 41.3254 340.62 42.0379 340.62 42.9653V43.3789H336.683C336.697 43.9518 336.864 44.4155 337.183 44.77C337.505 45.1209 337.913 45.2964 338.407 45.2964C338.758 45.2964 339.055 45.2248 339.299 45.0815C339.542 44.9383 339.755 44.7485 339.938 44.5122L340.545 44.9849C340.058 45.7332 339.327 46.1074 338.354 46.1074ZM338.23 40.8975C337.829 40.8975 337.492 41.0443 337.22 41.3379C336.948 41.6279 336.78 42.0361 336.715 42.5625H339.626V42.4873C339.598 41.9824 339.462 41.5921 339.218 41.3164C338.975 41.0371 338.645 40.8975 338.23 40.8975Z" fill="#E6E6E6"/>
<rect width="90" height="56" transform="translate(180)" fill="white"/>
<path d="M213 16C213 11.5817 216.582 8 221 8H229C233.418 8 237 11.5817 237 16V24C237 28.4183 233.418 32 229 32H221C216.582 32 213 28.4183 213 24V16Z" fill="#E6E6E6"/>
<rect x="184.5" y="34" width="81" height="16" rx="8" fill="#E6E6E6"/>
<path d="M199.885 46V38.1797H202.441C203.29 38.1797 203.927 38.3551 204.354 38.7061C204.783 39.057 204.998 39.5762 204.998 40.2637C204.998 40.6289 204.894 40.953 204.687 41.2358C204.479 41.5151 204.196 41.7318 203.838 41.8857C204.26 42.0039 204.593 42.2295 204.837 42.5625C205.084 42.8919 205.208 43.2858 205.208 43.7441C205.208 44.446 204.98 44.9974 204.525 45.3984C204.071 45.7995 203.428 46 202.597 46H199.885ZM200.916 42.3423V45.1567H202.619C203.098 45.1567 203.476 45.0332 203.752 44.7861C204.031 44.5355 204.171 44.1917 204.171 43.7549C204.171 42.8132 203.659 42.3423 202.635 42.3423H200.916ZM200.916 41.5151H202.474C202.925 41.5151 203.285 41.4023 203.553 41.1768C203.825 40.9512 203.961 40.645 203.961 40.2583C203.961 39.8286 203.836 39.5171 203.585 39.3237C203.335 39.1268 202.953 39.0283 202.441 39.0283H200.916V41.5151ZM208.532 42.3101L209.821 40.1885H210.981L209.08 43.062L211.041 46H209.891L208.548 43.8247L207.206 46H206.051L208.011 43.062L206.11 40.1885H207.259L208.532 42.3101ZM211.669 43.0405C211.669 42.4712 211.78 41.9591 212.002 41.5044C212.228 41.0496 212.539 40.6987 212.937 40.4517C213.338 40.2046 213.794 40.0811 214.306 40.0811C215.097 40.0811 215.737 40.355 216.224 40.9028C216.714 41.4507 216.959 42.1794 216.959 43.0889V43.1587C216.959 43.7244 216.85 44.2329 216.632 44.6841C216.417 45.1317 216.107 45.4808 215.703 45.7314C215.302 45.9821 214.84 46.1074 214.317 46.1074C213.529 46.1074 212.89 45.8335 212.399 45.2856C211.912 44.7378 211.669 44.0127 211.669 43.1104V43.0405ZM212.668 43.1587C212.668 43.8032 212.817 44.3206 213.114 44.7109C213.415 45.1012 213.816 45.2964 214.317 45.2964C214.822 45.2964 215.223 45.0994 215.52 44.7056C215.817 44.3081 215.966 43.7531 215.966 43.0405C215.966 42.4032 215.814 41.8875 215.509 41.4937C215.208 41.0962 214.807 40.8975 214.306 40.8975C213.816 40.8975 213.42 41.0926 213.119 41.4829C212.818 41.8732 212.668 42.4318 212.668 43.1587ZM217.771 45.189L218.114 44.7646C218.501 44.2633 218.721 43.5114 218.775 42.5088L218.866 40.1885H222.61V45.189H223.356V47.708H222.363V46H218.308V47.708H217.314L217.319 45.189H217.771ZM218.947 45.189H221.616V41.1069H219.828L219.769 42.4927C219.708 43.6493 219.434 44.548 218.947 45.189ZM228.899 40.1885V46H227.9V43.7388H226.402L225.032 46H223.958L225.419 43.5884C225.047 43.4523 224.76 43.2428 224.56 42.96C224.363 42.6735 224.264 42.3405 224.264 41.9609C224.264 41.431 224.463 41.0049 224.86 40.6826C225.258 40.3568 225.79 40.1921 226.456 40.1885H228.899ZM225.263 41.9717C225.263 42.2546 225.36 42.4837 225.553 42.6592C225.747 42.8311 226.003 42.9188 226.321 42.9224H227.9V40.9941H226.472C226.103 40.9941 225.809 41.0854 225.591 41.2681C225.372 41.4471 225.263 41.6816 225.263 41.9717ZM231.521 40.1885V45.189H233.647V40.1885H234.641V45.189H236.763V40.1885H237.762V45.189H238.578L238.481 47.7241H237.59V46H230.521V40.1885H231.521ZM243.353 40.1885H244.347V46H243.353V41.7622L240.673 46H239.679V40.1885H240.673V44.4316L243.353 40.1885ZM248.354 46.1074C247.566 46.1074 246.925 45.8496 246.431 45.334C245.937 44.8148 245.689 44.1219 245.689 43.2554V43.0728C245.689 42.4963 245.799 41.9824 246.017 41.5312C246.239 41.0765 246.547 40.722 246.941 40.4678C247.338 40.21 247.768 40.0811 248.23 40.0811C248.986 40.0811 249.573 40.3299 249.992 40.8276C250.411 41.3254 250.62 42.0379 250.62 42.9653V43.3789H246.683C246.697 43.9518 246.864 44.4155 247.183 44.77C247.505 45.1209 247.913 45.2964 248.407 45.2964C248.758 45.2964 249.055 45.2248 249.299 45.0815C249.542 44.9383 249.755 44.7485 249.938 44.5122L250.545 44.9849C250.058 45.7332 249.327 46.1074 248.354 46.1074ZM248.23 40.8975C247.829 40.8975 247.492 41.0443 247.22 41.3379C246.948 41.6279 246.78 42.0361 246.715 42.5625H249.626V42.4873C249.598 41.9824 249.462 41.5921 249.218 41.3164C248.975 41.0371 248.645 40.8975 248.23 40.8975Z" fill="#E6E6E6"/>
<g clip-path="url(#clip0)">
<rect width="90" height="56" transform="translate(90)" fill="white"/>
<path d="M123 16C123 11.5817 126.582 8 131 8H139C143.418 8 147 11.5817 147 16V24C147 28.4183 143.418 32 139 32H131C126.582 32 123 28.4183 123 24V16Z" fill="#E6E6E6"/>
<rect x="94.5" y="34" width="81" height="16" rx="8" fill="#E6E6E6"/>
<path d="M109.885 46V38.1797H112.441C113.29 38.1797 113.927 38.3551 114.354 38.7061C114.783 39.057 114.998 39.5762 114.998 40.2637C114.998 40.6289 114.894 40.953 114.687 41.2358C114.479 41.5151 114.196 41.7318 113.838 41.8857C114.26 42.0039 114.593 42.2295 114.837 42.5625C115.084 42.8919 115.208 43.2858 115.208 43.7441C115.208 44.446 114.98 44.9974 114.525 45.3984C114.071 45.7995 113.428 46 112.597 46H109.885ZM110.916 42.3423V45.1567H112.619C113.098 45.1567 113.476 45.0332 113.752 44.7861C114.031 44.5355 114.171 44.1917 114.171 43.7549C114.171 42.8132 113.659 42.3423 112.635 42.3423H110.916ZM110.916 41.5151H112.474C112.925 41.5151 113.285 41.4023 113.553 41.1768C113.825 40.9512 113.961 40.645 113.961 40.2583C113.961 39.8286 113.836 39.5171 113.585 39.3237C113.335 39.1268 112.953 39.0283 112.441 39.0283H110.916V41.5151ZM118.532 42.3101L119.821 40.1885H120.981L119.08 43.062L121.041 46H119.891L118.548 43.8247L117.206 46H116.051L118.011 43.062L116.11 40.1885H117.259L118.532 42.3101ZM121.669 43.0405C121.669 42.4712 121.78 41.9591 122.002 41.5044C122.228 41.0496 122.539 40.6987 122.937 40.4517C123.338 40.2046 123.794 40.0811 124.306 40.0811C125.097 40.0811 125.737 40.355 126.224 40.9028C126.714 41.4507 126.959 42.1794 126.959 43.0889V43.1587C126.959 43.7244 126.85 44.2329 126.632 44.6841C126.417 45.1317 126.107 45.4808 125.703 45.7314C125.302 45.9821 124.84 46.1074 124.317 46.1074C123.529 46.1074 122.89 45.8335 122.399 45.2856C121.912 44.7378 121.669 44.0127 121.669 43.1104V43.0405ZM122.668 43.1587C122.668 43.8032 122.817 44.3206 123.114 44.7109C123.415 45.1012 123.816 45.2964 124.317 45.2964C124.822 45.2964 125.223 45.0994 125.52 44.7056C125.817 44.3081 125.966 43.7531 125.966 43.0405C125.966 42.4032 125.814 41.8875 125.509 41.4937C125.208 41.0962 124.807 40.8975 124.306 40.8975C123.816 40.8975 123.42 41.0926 123.119 41.4829C122.818 41.8732 122.668 42.4318 122.668 43.1587ZM127.771 45.189L128.114 44.7646C128.501 44.2633 128.721 43.5114 128.775 42.5088L128.866 40.1885H132.61V45.189H133.356V47.708H132.363V46H128.308V47.708H127.314L127.319 45.189H127.771ZM128.947 45.189H131.616V41.1069H129.828L129.769 42.4927C129.708 43.6493 129.434 44.548 128.947 45.189ZM138.899 40.1885V46H137.9V43.7388H136.402L135.032 46H133.958L135.419 43.5884C135.047 43.4523 134.76 43.2428 134.56 42.96C134.363 42.6735 134.264 42.3405 134.264 41.9609C134.264 41.431 134.463 41.0049 134.86 40.6826C135.258 40.3568 135.79 40.1921 136.456 40.1885H138.899ZM135.263 41.9717C135.263 42.2546 135.36 42.4837 135.553 42.6592C135.747 42.8311 136.003 42.9188 136.321 42.9224H137.9V40.9941H136.472C136.103 40.9941 135.809 41.0854 135.591 41.2681C135.372 41.4471 135.263 41.6816 135.263 41.9717ZM141.521 40.1885V45.189H143.647V40.1885H144.641V45.189H146.763V40.1885H147.762V45.189H148.578L148.481 47.7241H147.59V46H140.521V40.1885H141.521ZM153.353 40.1885H154.347V46H153.353V41.7622L150.673 46H149.679V40.1885H150.673V44.4316L153.353 40.1885ZM158.354 46.1074C157.566 46.1074 156.925 45.8496 156.431 45.334C155.937 44.8148 155.689 44.1219 155.689 43.2554V43.0728C155.689 42.4963 155.799 41.9824 156.017 41.5312C156.239 41.0765 156.547 40.722 156.941 40.4678C157.338 40.21 157.768 40.0811 158.23 40.0811C158.986 40.0811 159.573 40.3299 159.992 40.8276C160.411 41.3254 160.62 42.0379 160.62 42.9653V43.3789H156.683C156.697 43.9518 156.864 44.4155 157.183 44.77C157.505 45.1209 157.913 45.2964 158.407 45.2964C158.758 45.2964 159.055 45.2248 159.299 45.0815C159.542 44.9383 159.755 44.7485 159.938 44.5122L160.545 44.9849C160.058 45.7332 159.327 46.1074 158.354 46.1074ZM158.23 40.8975C157.829 40.8975 157.492 41.0443 157.22 41.3379C156.948 41.6279 156.78 42.0361 156.715 42.5625H159.626V42.4873C159.598 41.9824 159.462 41.5921 159.218 41.3164C158.975 41.0371 158.645 40.8975 158.23 40.8975Z" fill="#E6E6E6"/>
</g>
</g>
<defs>
<clipPath id="clip0">
<rect width="90" height="56" fill="white" transform="translate(90)"/>
</clipPath>
</defs>
</svg>
