<svg width="16" height="16" viewBox="0 0 16 16" fill="none" xmlns="http://www.w3.org/2000/svg">
<circle cx="8" cy="8" r="8" fill="white"/>
<g clip-path="url(#clip0)">
<path d="M10.0269 15.5123L10.1803 12.956L10.6039 12.2329C10.6039 12.2329 9.63975 12.6273 8.02564 12.6273C6.41151 12.6273 5.46199 12.2402 5.46199 12.2402L5.93674 13.029L6.10468 15.5123C6.10468 15.7786 6.98267 15.9944 8.06578 15.9944C9.14884 15.9944 10.0269 15.7786 10.0269 15.5123ZM9.54293 3.57466L9.86493 2.30187L11.6481 0.425519L11.1782 0.0252075L9.29026 2.02399L8.91638 3.54464C8.63499 3.53521 8.35346 3.53053 8.07192 3.53059C6.08362 3.53059 4.47178 3.75719 4.47178 4.03666C4.47178 4.31615 6.08362 4.54272 8.07192 4.54272C10.0602 4.54272 11.672 4.31615 11.672 4.03666C11.672 3.83086 10.7978 3.65373 9.54293 3.57466Z" fill="#D34A47"/>
<path d="M9.35556 4.28746C9.35556 4.28746 9.28583 4.30309 9.08069 4.30397C8.87549 4.30481 8.7298 4.30264 8.67177 4.24979C8.65617 4.23561 8.64763 4.20743 8.64771 4.18836C8.64788 4.15205 8.67366 4.13066 8.70651 4.11726L8.73758 4.16598C8.72406 4.17064 8.71635 4.17615 8.71632 4.18203C8.71621 4.20961 8.92612 4.22849 9.08668 4.22645C9.24727 4.22447 9.4413 4.21125 9.44147 4.18407C9.44147 4.17584 9.4268 4.1681 9.40127 4.162L9.43219 4.11362C9.4738 4.12653 9.51013 4.15148 9.51004 4.19466C9.50965 4.26808 9.4162 4.27924 9.35556 4.28746Z" fill="white"/>
<path d="M11.6446 0.429346C11.6894 0.377559 11.6214 0.245094 11.4926 0.133519C11.3638 0.0220003 11.223 -0.0264515 11.1781 0.025336C11.1332 0.0771234 11.2013 0.209589 11.3301 0.321107C11.4589 0.432654 11.5997 0.481162 11.6446 0.429346ZM9.94103 9.2683C9.89877 8.86169 10.8304 8.2728 10.5913 8.25395C10.0766 8.28338 9.82044 8.85714 9.56147 9.45806C9.46658 9.6783 9.14185 10.6174 8.92888 10.5018C8.71596 10.3863 9.20492 9.61399 9.34197 9.15537C9.18383 9.27132 8.6039 9.72189 8.45445 9.29993C8.21417 9.504 7.70072 9.61456 7.75865 9.07851C7.63082 9.30494 7.34392 9.62106 6.99955 9.4897C6.54731 9.31723 7.2616 7.87665 7.43921 7.94933C7.61685 8.02198 7.40337 8.35015 7.34745 8.47758C7.22448 8.75803 7.08243 9.11059 7.17733 9.18276C7.3399 9.30641 7.78231 8.715 7.79214 8.702C7.87489 8.59269 8.11062 7.87753 8.30061 7.95965C8.4906 8.04177 7.82672 8.98601 8.07494 9.1734C8.12501 9.21123 8.32984 9.15008 8.45445 9.01527C8.53507 8.92806 8.50734 8.73491 8.77609 8.09401C9.04484 7.45314 9.28436 6.65501 9.46867 6.71582C9.65298 6.77659 9.50106 7.18623 9.43494 7.33893C9.12467 8.05565 8.58813 9.23972 8.84116 9.15008C9.09419 9.06047 9.22595 9.05521 9.47373 8.76527C9.7215 8.47532 9.71008 7.99773 9.87523 8.00787C10.0404 8.01805 10.0127 8.17118 9.97264 8.28779C10.1352 8.10178 10.7431 7.71004 10.8899 8.09802C11.0637 8.55735 10.0201 9.22084 10.2803 9.187C10.534 9.15401 10.945 8.89369 11.1205 8.657L11.6036 4.31426C11.6036 4.31426 11.1175 4.71651 8.02511 4.71651C4.93267 4.71651 4.49688 4.32262 4.49688 4.32262L4.90813 8.28651C5.12642 7.66611 5.64478 6.41122 6.46185 6.45334C6.83353 6.47251 7.3297 7.18818 6.90468 7.21243C6.72478 7.22267 6.70652 6.85521 6.49349 6.80124C6.33976 6.76229 6.12574 6.88726 5.98742 7.02267C5.71158 7.29263 5.11831 8.35775 5.1967 8.88877C5.29657 9.56577 6.13091 8.65352 6.27209 8.38268C6.37151 8.1919 6.43867 7.62665 6.65612 7.68595C6.87359 7.74526 6.63715 8.32861 6.47952 8.84436C6.30245 9.42349 6.20936 10.0344 5.98742 9.96412C5.76546 9.8939 6.12701 9.14627 6.11393 9.01527C5.9053 9.20775 5.52096 9.69504 5.02926 9.45385L5.28467 11.9154C5.28467 11.9154 5.96348 12.4517 8.00834 12.4517C10.0532 12.4517 10.7571 11.9238 10.7571 11.9238L11.0743 9.07271C10.8148 9.32537 9.99361 9.77405 9.94103 9.2683Z" fill="#D34A47"/>
</g>
<defs>
<clipPath id="clip0">
<rect width="7.2384" height="16" fill="white" transform="translate(4.45)"/>
</clipPath>
</defs>
</svg>
