<svg width="16" height="16" viewBox="0 0 16 16" fill="none" xmlns="http://www.w3.org/2000/svg">
<g clip-path="url(#clip0)">
<path d="M0.666656 0.685242H15.3333V15.3148H0.666656V0.685242Z" fill="url(#paint0_radial)"/>
<path d="M0.66666 0.685196H15.3334V15.3147H0.66666V0.685196ZM0 15.9983H16V0.00158691H0V15.9983ZM10.7867 6.56433C10.26 6.56433 10.08 6.83777 10.08 7.06336C10.08 7.30945 10.2 7.48036 10.9067 7.85636C11.9534 8.37592 12.2801 8.87495 12.2801 9.60644C12.2801 10.7002 11.4667 11.2881 10.3667 11.2881C9.7867 11.2881 9.28668 11.1651 9.00003 10.9942C8.95337 10.9737 8.9467 10.9395 8.9467 10.8848V9.87987C8.9467 9.81152 8.98003 9.79099 9.02672 9.82519C9.44672 10.1055 9.92671 10.2285 10.3667 10.2285C10.8934 10.2285 11.1134 10.0029 11.1134 9.69529C11.1134 9.4492 10.96 9.23044 10.2867 8.87495C9.34001 8.4101 8.9467 7.93841 8.9467 7.15224C8.9467 6.27036 9.62005 5.5389 10.7867 5.5389C11.36 5.5389 11.76 5.62779 11.98 5.73031C12.0334 5.76449 12.0467 5.81917 12.0467 5.86702V6.80356C12.0467 6.85824 12.0134 6.89245 11.9467 6.87192C11.6534 6.68056 11.22 6.56433 10.7867 6.56433V6.56433ZM5.05334 7.37783C5.20668 7.39151 5.32669 7.39151 5.59335 7.39151C6.37338 7.39151 7.1067 7.11123 7.1067 6.02429C7.1067 5.1561 6.58002 4.71856 5.69336 4.71856C5.42671 4.71856 5.17335 4.73223 5.05334 4.73906V7.37783ZM3.8667 3.74781C3.8667 3.69996 3.96004 3.66576 4.01334 3.66576C4.44003 3.64525 5.07337 3.63158 5.73336 3.63158C7.58003 3.63158 8.30001 4.67068 8.30001 5.99692C8.30001 7.7333 7.07334 8.47845 5.56669 8.47845C5.31336 8.47845 5.22671 8.46478 5.04668 8.46478V11.0899C5.04668 11.1446 5.02668 11.1719 4.96669 11.1719H3.94669C3.89336 11.1719 3.86667 11.1514 3.86667 11.0899V3.74781H3.8667Z" fill="#31C5F0"/>
</g>
<defs>
<radialGradient id="paint0_radial" cx="0" cy="0" r="1" gradientUnits="userSpaceOnUse" gradientTransform="translate(5.49713 3.96375) scale(11.1466 11.0665)">
<stop stop-color="#34364E" stop-opacity="0.98"/>
<stop offset="1" stop-color="#0C0824"/>
</radialGradient>
<clipPath id="clip0">
<rect width="16" height="16" fill="white"/>
</clipPath>
</defs>
</svg>
